Coordinates
version=1
nRows=26
nColumns=24
inDegrees=yes

Units are S.I. units (second, meters, Newtons, ...)
Angles are in degrees.

endheader
time	pelvis_tilt	pelvis_list	pelvis_rotation	pelvis_tx	pelvis_ty	pelvis_tz	hip_flexion_r	hip_adduction_r	hip_rotation_r	knee_angle_r	ankle_angle_r	subtalar_angle_r	mtp_angle_r	hip_flexion_l	hip_adduction_l	hip_rotation_l	knee_angle_l	ankle_angle_l	subtalar_angle_l	mtp_angle_l	lumbar_extension	lumbar_bending	lumbar_rotation
      2.50000000	      4.02619237	     -3.24305769	     -3.25956180	      0.93236144	      1.03497180	      1.57374161	    -18.92347610	      5.15943829	     -7.46234107	     -1.80681963	     15.60721782	     25.04396683	    -47.97739471	     20.28037196	     -5.76663491	     -1.40253320	     -3.87587361	     -1.98152920	      9.45788659	    -57.91619891	    -16.42690184	      1.03119953	      9.76532161
      2.51000000	      4.14798185	     -3.37495777	     -3.41230572	      0.93306847	      1.03152663	      1.57376026	    -19.91219788	      5.12600558	     -6.81501753	     -2.39890285	     16.47018204	     24.63529982	    -47.96906476	     20.46829233	     -5.77589018	     -2.43957153	     -3.42316609	     -1.82734266	     10.83281715	    -57.91589281	    -16.44361657	      1.07218411	      9.86389690
      2.52000000	      4.22193046	     -3.40549362	     -3.49947605	      0.93385977	      1.02822735	      1.57363143	    -20.81341429	      5.01501247	     -5.89292848	     -3.05454938	     17.28862587	     23.73252275	    -48.13290068	     20.61935894	     -5.61657175	     -2.79233897	     -3.30731057	     -1.89984197	     11.38002689	    -57.75408081	    -16.38454808	      1.02442827	      9.84299239
      2.53000000	      4.24277537	     -3.29921748	     -3.59981082	      0.93477154	      1.02515242	      1.57337471	    -21.55960330	      4.74400293	     -4.96006766	     -3.86433523	     18.00097919	     22.80262764	    -48.37745186	     20.69680377	     -5.27576461	     -2.43742987	     -3.45332081	     -2.23229667	     10.88810226	    -57.51283204	    -16.23858364	      0.83979835	      9.82227848
      2.54000000	      4.25783561	     -3.10461615	     -3.65673094	      0.93581086	      1.02240795	      1.57297572	    -22.21708492	      4.39863295	     -3.93221455	     -4.80276101	     18.56541386	     21.61869419	    -48.75058256	     20.71195530	     -4.80578916	     -1.54997546	     -3.92083214	     -2.75922618	      9.72727177	    -57.17706555	    -16.06486505	      0.57618962	      9.73786248
      2.55000000	      4.27568717	     -2.83117396	     -3.68926531	      0.93699059	      1.02007149	      1.57244550	    -22.76434684	      3.98354628	     -2.85871133	     -5.91291883	     18.92451941	     20.28173461	    -49.27923232	     20.67070834	     -4.22358264	     -0.29533621	     -4.69752824	     -3.42896890	      8.06861277	    -56.74727402	    -15.87715139	      0.24206278	      9.63786468
      2.56000000	      4.32210873	     -2.47021784	     -3.72957287	      0.93835092	      1.01823959	      1.57181642	    -23.20490392	      3.47658317	     -1.74934836	     -7.22116161	     19.32321487	     18.68897605	    -52.43310950	     20.54973944	     -3.54255548	      1.04034552	     -5.74393824	     -4.26604788	      6.45122407	    -54.79445685	    -15.70173082	     -0.18314674	      9.55099164
      2.57000000	      4.37872314	     -2.04469498	     -3.76888792	      0.93985160	      1.01690757	      1.57106209	    -23.47458137	      2.90051376	     -0.73681158	     -8.80232879	     19.12017550	     17.44637676	    -52.67040380	     20.38381051	     -2.77061816	      2.44273155	     -7.02927026	     -4.92494765	      4.63509271	    -54.47190884	    -15.52816483	     -0.66640413	      9.48067349
      2.58000000	      4.50014346	     -1.60694051	     -3.79442705	      0.94148157	      1.01617331	      1.57021683	    -23.60850639	      2.32149359	      0.18493521	    -10.67628042	     18.58184000	     16.20993579	    -53.23005026	     20.13039038	     -1.97811633	      3.62302011	     -8.52482332	     -5.41181254	      3.12080290	    -54.01089391	    -15.42648257	     -1.15497370	      9.42662994
      2.59000000	      4.64985051	     -1.17645490	     -3.79931552	      0.94320545	      1.01599237	      1.56927668	    -23.48692397	      1.74273137	      0.80308581	    -12.95921499	     17.99589189	     15.11356179	    -56.51753066	     19.81843546	     -1.19949430	      4.49869082	    -10.16126803	     -5.70695246	      2.17486565	    -51.67242784	    -15.36152718	     -1.62351509	      9.38191596
      2.60000000	      4.85134108	     -0.78111056	     -3.80869894	      0.94492487	      1.01638178	      1.56831919	    -23.16232793	      1.21464293	      1.41427852	    -15.59250486	     16.71339354	     14.21492321	    -56.80692393	     19.39783387	     -0.48871269	      4.98681343	    -11.83318183	     -5.57464700	      1.60859053	    -51.34934133	    -15.37316270	     -2.05072639	      9.37447142
      2.61000000	      5.06035676	     -0.43407202	     -3.78247754	      0.94657267	      1.01725272	      1.56727457	    -22.51845772	      0.73572827	      1.76290010	    -18.64877632	     15.13883122	     13.48106168	    -58.10332506	     18.85901294	      0.16286401	      5.35625505	    -13.39524915	     -5.19647896	      1.33658992	    -49.80874972	    -15.41967898	     -2.40666881	      9.35661922
      2.62000000	      5.25146827	     -0.14893949	     -3.67393107	      0.94803833	      1.01851501	      1.56612313	    -21.50693805	      0.31675747	      1.73690876	    -22.14444984	     13.17813902	     13.11792243	    -58.25003827	     18.25211747	      0.72726860	      5.50972360	    -14.83261342	     -4.41843292	      1.44335354	    -49.66348724	    -15.48600625	     -2.66432208	      9.26075120
      2.63000000	      5.39575496	      0.07292284	     -3.54012234	      0.94924467	      1.02011518	      1.56493254	    -20.14170177	     -0.03812550	      1.62700843	    -25.94689257	     10.96887441	     12.74552302	    -58.29281608	     17.53791818	      1.19241274	      5.56276996	    -15.99200968	     -3.47641743	      1.71056468	    -49.46641359	    -15.54274393	     -2.83231841	      9.15200019
      2.64000000	      5.49535293	      0.24662244	     -3.37923210	      0.95014814	      1.02199442	      1.56375244	    -18.47098033	     -0.33487050	      1.47334045	    -29.96844399	      8.38196181	     12.53817867	    -55.12413998	     16.71644075	      1.55156116	      5.41872935	    -16.85073156	     -2.47185931	      2.33739588	    -47.76736071	    -15.59262300	     -2.93591218	      8.99695560
      2.65000000	      5.52808312	      0.34273531	     -3.15352839	      0.95068894	      1.02410612	      1.56251536	    -16.50381739	     -0.55931629	      1.19435007	    -34.08144804	      5.99531892	     12.21685015	    -54.02245799	     15.81969308	      1.80013919	      5.25008224	    -17.40059155	     -1.35698696	      3.10147298	    -47.43044014	    -15.61590676	     -2.92365434	      8.77283106
      2.66000000	      5.45046055	      0.39986907	     -2.83515761	      0.95085288	      1.02635087	      1.56119792	    -14.25505675	     -0.72150505	      0.82663329	    -38.21124968	      3.60961078	     11.95645608	    -49.80229302	     14.84883529	      2.02976495	      5.35391167	    -17.54377078	     -0.35499313	      3.44649394	    -46.82564018	    -15.56201231	     -2.83295359	      8.40971697
      2.67000000	      5.32951057	      0.38392534	     -2.42257378	      0.95068140	      1.02879034	      1.55988336	    -11.86317721	     -0.79415188	      0.37947179	    -42.18597773	      1.75240984	     11.50124404	    -47.43012553	     13.82128545	      2.13531894	      5.37013540	    -17.44326686	      0.65626507	      4.21776620	    -46.56472043	    -15.49971830	     -2.64181230	      7.92363216
      2.68000000	      5.10787783	      0.29146444	     -2.00571884	      0.95015551	      1.03136039	      1.55860339	     -9.27244013	     -0.78733512	     -0.01332595	    -45.95221213	      0.49708065	     10.93485149	    -47.07035500	     12.75773936	      2.15297482	      5.54740861	    -17.02526396	      1.46984090	      4.61268957	    -46.50452597	    -15.35814453	     -2.35385749	      7.43817341
      2.69000000	      4.92825703	      0.13867081	     -1.46224397	      0.94939724	      1.03414989	      1.55731031	     -6.74861800	     -0.71724634	     -0.55690071	    -49.35047562	     -0.71502407	     10.60575544	    -42.84803031	     11.59677197	      2.07810856	      5.69257525	    -16.46828493	      2.31306560	      5.29897145	    -46.46697323	    -15.28768500	     -1.98040807	      6.77451118
      2.70000000	      4.69818025	     -0.07866621	     -0.79470388	      0.94839880	      1.03706376	      1.55598452	     -4.17436186	     -0.59516375	     -1.23592731	    -52.35162462	     -1.07822940	     10.10969903	    -42.70599317	     10.40336677	      1.93833846	      6.09177504	    -15.67860935	      2.86589061	      5.77017765	    -46.45858821	    -15.17976343	     -1.51186565	      5.95394315
      2.71000000	      4.41735871	     -0.40485747	     -0.12660441	      0.94714918	      1.04003556	      1.55479832	     -1.55855094	     -0.34366727	     -1.84260935	    -54.93064352	     -1.24229390	      9.76141213	    -40.76083996	      9.26699425	      1.62266472	      6.36442111	    -14.83688771	      3.35718579	      6.51792654	    -46.83529046	    -15.02850179	     -0.92978415	      5.16515510
      2.72000000	      4.15828017	     -0.77060129	      0.65477672	      0.94575566	      1.04309346	      1.55357065	      0.97364911	     -0.09788196	     -2.61631282	    -56.99767758	     -1.03790579	      9.34988882	    -40.56826370	      8.06098171	      1.27992356	      6.96514266	    -13.86844438	      3.78379717	      6.88088513	    -46.90240805	    -14.90325461	     -0.28545711	      4.23037766
      2.73000000	      3.89320698	     -1.20352910	      1.49408113	      0.94421017	      1.04613210	      1.55240356	      3.44705230	      0.19586477	     -3.43836986	    -58.55803864	     -0.59850695	      9.00550440	    -40.34212518	      6.88038395	      0.82624784	      7.56581088	    -12.86825545	      4.08841108	      7.33046132	    -47.04112870	    -14.76851132	      0.43578281	      3.24465482
      2.74000000	      3.64544866	     -1.68168153	      2.38755409	      0.94254909	      1.04911319	      1.55126330	      5.81373576	      0.49757038	     -4.32158433	    -59.58460868	     -0.12959506	      8.76615936	    -39.35028445	      5.67961865	      0.30562306	      8.34316185	    -11.80563746	      4.38304486	      7.48018131	    -48.79660641	    -14.64343684	      1.21184393	      2.20618436
      2.75000000	      3.37382573	     -2.19464737	      3.28296915	      0.94078154	      1.05188192	      1.55023142	      8.13330203	      0.80460445	     -5.20615790	    -60.11864658	      0.48896771	      8.44787080	    -39.28362957	      4.58500897	     -0.31519451	      8.84834081	    -10.83183515	      4.60189669	      8.09698436	    -48.89645335	    -14.47924832	      2.01432446	      1.17450071
